<mxfile host="app.diagrams.net" modified="2023-09-18T08:24:36.219Z" agent="Mozilla/5.0 (Windows NT 10.0; Win64; x64) AppleWebKit/537.36 (KHTML, like Gecko) Chrome/116.0.0.0 Safari/537.36" etag="xOW71G49vI-ZtI-JKxv7" version="21.7.5" type="github">
  <diagram name="Page-1" id="S6UxS2rbXGVWsQRWLKjO">
    <mxGraphModel dx="1273" dy="740" grid="1" gridSize="10" guides="1" tooltips="1" connect="1" arrows="1" fold="1" page="1" pageScale="1" pageWidth="850" pageHeight="1100" math="0" shadow="0">
      <root>
        <mxCell id="0" />
        <mxCell id="1" parent="0" />
        <mxCell id="E_iQ0Z_nkJK2vYBMSeWu-5" style="rounded=0;orthogonalLoop=1;jettySize=auto;html=1;" parent="1" source="E_iQ0Z_nkJK2vYBMSeWu-1" target="E_iQ0Z_nkJK2vYBMSeWu-4" edge="1">
          <mxGeometry relative="1" as="geometry" />
        </mxCell>
        <mxCell id="E_iQ0Z_nkJK2vYBMSeWu-13" style="rounded=0;orthogonalLoop=1;jettySize=auto;html=1;" parent="1" source="E_iQ0Z_nkJK2vYBMSeWu-1" target="E_iQ0Z_nkJK2vYBMSeWu-12" edge="1">
          <mxGeometry relative="1" as="geometry" />
        </mxCell>
        <mxCell id="E_iQ0Z_nkJK2vYBMSeWu-16" style="rounded=0;orthogonalLoop=1;jettySize=auto;html=1;" parent="1" source="E_iQ0Z_nkJK2vYBMSeWu-1" target="E_iQ0Z_nkJK2vYBMSeWu-14" edge="1">
          <mxGeometry relative="1" as="geometry" />
        </mxCell>
        <mxCell id="E_iQ0Z_nkJK2vYBMSeWu-17" style="rounded=0;orthogonalLoop=1;jettySize=auto;html=1;" parent="1" source="E_iQ0Z_nkJK2vYBMSeWu-1" target="E_iQ0Z_nkJK2vYBMSeWu-15" edge="1">
          <mxGeometry relative="1" as="geometry" />
        </mxCell>
        <mxCell id="E_iQ0Z_nkJK2vYBMSeWu-34" style="rounded=0;orthogonalLoop=1;jettySize=auto;html=1;" parent="1" source="E_iQ0Z_nkJK2vYBMSeWu-1" target="E_iQ0Z_nkJK2vYBMSeWu-33" edge="1">
          <mxGeometry relative="1" as="geometry" />
        </mxCell>
        <mxCell id="PJf7z8ohsHyIc1MsfL0N-3" style="rounded=0;orthogonalLoop=1;jettySize=auto;html=1;entryX=0.25;entryY=0.1;entryDx=0;entryDy=0;entryPerimeter=0;" edge="1" parent="1" source="E_iQ0Z_nkJK2vYBMSeWu-1" target="E_iQ0Z_nkJK2vYBMSeWu-230">
          <mxGeometry relative="1" as="geometry" />
        </mxCell>
        <mxCell id="E_iQ0Z_nkJK2vYBMSeWu-1" value="user&lt;br&gt;" style="shape=umlActor;verticalLabelPosition=bottom;verticalAlign=top;html=1;outlineConnect=0;" parent="1" vertex="1">
          <mxGeometry x="110" y="110" width="30" height="60" as="geometry" />
        </mxCell>
        <mxCell id="E_iQ0Z_nkJK2vYBMSeWu-4" value="Login chay" style="ellipse;whiteSpace=wrap;html=1;" parent="1" vertex="1">
          <mxGeometry x="310" y="80" width="120" height="50" as="geometry" />
        </mxCell>
        <mxCell id="E_iQ0Z_nkJK2vYBMSeWu-6" value="" style="swimlane;startSize=0;" parent="1" vertex="1">
          <mxGeometry x="270" y="10" width="740" height="550" as="geometry" />
        </mxCell>
        <mxCell id="E_iQ0Z_nkJK2vYBMSeWu-8" value="Login Google" style="ellipse;whiteSpace=wrap;html=1;" parent="E_iQ0Z_nkJK2vYBMSeWu-6" vertex="1">
          <mxGeometry x="250" y="40" width="120" height="50" as="geometry" />
        </mxCell>
        <mxCell id="E_iQ0Z_nkJK2vYBMSeWu-11" value="Extend&lt;br&gt;" style="text;html=1;align=center;verticalAlign=middle;resizable=0;points=[];autosize=1;strokeColor=none;fillColor=none;" parent="E_iQ0Z_nkJK2vYBMSeWu-6" vertex="1">
          <mxGeometry x="190" y="60" width="60" height="30" as="geometry" />
        </mxCell>
        <mxCell id="E_iQ0Z_nkJK2vYBMSeWu-12" value="Reset Password" style="ellipse;whiteSpace=wrap;html=1;" parent="E_iQ0Z_nkJK2vYBMSeWu-6" vertex="1">
          <mxGeometry x="60" y="160" width="130" height="50" as="geometry" />
        </mxCell>
        <mxCell id="E_iQ0Z_nkJK2vYBMSeWu-32" style="rounded=0;orthogonalLoop=1;jettySize=auto;html=1;entryX=0;entryY=1;entryDx=0;entryDy=0;" parent="E_iQ0Z_nkJK2vYBMSeWu-6" source="E_iQ0Z_nkJK2vYBMSeWu-14" target="E_iQ0Z_nkJK2vYBMSeWu-31" edge="1">
          <mxGeometry relative="1" as="geometry" />
        </mxCell>
        <mxCell id="E_iQ0Z_nkJK2vYBMSeWu-14" value="View Profile" style="ellipse;whiteSpace=wrap;html=1;" parent="E_iQ0Z_nkJK2vYBMSeWu-6" vertex="1">
          <mxGeometry x="60" y="245" width="130" height="50" as="geometry" />
        </mxCell>
        <mxCell id="E_iQ0Z_nkJK2vYBMSeWu-19" value="" style="rounded=0;orthogonalLoop=1;jettySize=auto;html=1;" parent="E_iQ0Z_nkJK2vYBMSeWu-6" source="E_iQ0Z_nkJK2vYBMSeWu-15" target="E_iQ0Z_nkJK2vYBMSeWu-18" edge="1">
          <mxGeometry relative="1" as="geometry" />
        </mxCell>
        <mxCell id="E_iQ0Z_nkJK2vYBMSeWu-15" value="Edit Profile" style="ellipse;whiteSpace=wrap;html=1;" parent="E_iQ0Z_nkJK2vYBMSeWu-6" vertex="1">
          <mxGeometry x="70" y="360" width="130" height="50" as="geometry" />
        </mxCell>
        <mxCell id="E_iQ0Z_nkJK2vYBMSeWu-18" value="Update Info" style="ellipse;whiteSpace=wrap;html=1;" parent="E_iQ0Z_nkJK2vYBMSeWu-6" vertex="1">
          <mxGeometry x="280" y="265" width="130" height="50" as="geometry" />
        </mxCell>
        <mxCell id="E_iQ0Z_nkJK2vYBMSeWu-20" value="Include&lt;br&gt;" style="text;html=1;align=center;verticalAlign=middle;resizable=0;points=[];autosize=1;strokeColor=none;fillColor=none;" parent="E_iQ0Z_nkJK2vYBMSeWu-6" vertex="1">
          <mxGeometry x="210" y="315" width="60" height="30" as="geometry" />
        </mxCell>
        <mxCell id="E_iQ0Z_nkJK2vYBMSeWu-26" style="edgeStyle=orthogonalEdgeStyle;rounded=0;orthogonalLoop=1;jettySize=auto;html=1;entryX=1;entryY=0.5;entryDx=0;entryDy=0;" parent="E_iQ0Z_nkJK2vYBMSeWu-6" source="E_iQ0Z_nkJK2vYBMSeWu-21" target="E_iQ0Z_nkJK2vYBMSeWu-18" edge="1">
          <mxGeometry relative="1" as="geometry" />
        </mxCell>
        <mxCell id="E_iQ0Z_nkJK2vYBMSeWu-28" style="edgeStyle=orthogonalEdgeStyle;rounded=0;orthogonalLoop=1;jettySize=auto;html=1;entryX=0.5;entryY=1;entryDx=0;entryDy=0;" parent="E_iQ0Z_nkJK2vYBMSeWu-6" source="E_iQ0Z_nkJK2vYBMSeWu-21" target="E_iQ0Z_nkJK2vYBMSeWu-25" edge="1">
          <mxGeometry relative="1" as="geometry" />
        </mxCell>
        <mxCell id="E_iQ0Z_nkJK2vYBMSeWu-21" value="Update Email" style="ellipse;whiteSpace=wrap;html=1;" parent="E_iQ0Z_nkJK2vYBMSeWu-6" vertex="1">
          <mxGeometry x="560" y="265" width="130" height="50" as="geometry" />
        </mxCell>
        <mxCell id="E_iQ0Z_nkJK2vYBMSeWu-25" value="Verify" style="ellipse;whiteSpace=wrap;html=1;" parent="E_iQ0Z_nkJK2vYBMSeWu-6" vertex="1">
          <mxGeometry x="560" y="160" width="130" height="50" as="geometry" />
        </mxCell>
        <mxCell id="E_iQ0Z_nkJK2vYBMSeWu-31" value="View Assign User ROle" style="ellipse;whiteSpace=wrap;html=1;" parent="E_iQ0Z_nkJK2vYBMSeWu-6" vertex="1">
          <mxGeometry x="270" y="185" width="130" height="40" as="geometry" />
        </mxCell>
        <mxCell id="E_iQ0Z_nkJK2vYBMSeWu-33" value="Change password" style="ellipse;whiteSpace=wrap;html=1;" parent="E_iQ0Z_nkJK2vYBMSeWu-6" vertex="1">
          <mxGeometry x="240" y="110" width="130" height="50" as="geometry" />
        </mxCell>
        <mxCell id="E_iQ0Z_nkJK2vYBMSeWu-29" value="Include" style="text;html=1;align=center;verticalAlign=middle;resizable=0;points=[];autosize=1;strokeColor=none;fillColor=none;" parent="E_iQ0Z_nkJK2vYBMSeWu-6" vertex="1">
          <mxGeometry x="595" y="215" width="60" height="30" as="geometry" />
        </mxCell>
        <mxCell id="E_iQ0Z_nkJK2vYBMSeWu-231" value="view landing page" style="ellipse;whiteSpace=wrap;html=1;" parent="E_iQ0Z_nkJK2vYBMSeWu-6" vertex="1">
          <mxGeometry x="340" y="370" width="140" height="70" as="geometry" />
        </mxCell>
        <mxCell id="PJf7z8ohsHyIc1MsfL0N-1" style="edgeStyle=orthogonalEdgeStyle;rounded=0;orthogonalLoop=1;jettySize=auto;html=1;entryX=0.5;entryY=1;entryDx=0;entryDy=0;" edge="1" parent="E_iQ0Z_nkJK2vYBMSeWu-6" source="E_iQ0Z_nkJK2vYBMSeWu-233" target="E_iQ0Z_nkJK2vYBMSeWu-231">
          <mxGeometry relative="1" as="geometry" />
        </mxCell>
        <mxCell id="PJf7z8ohsHyIc1MsfL0N-2" value="Extend" style="edgeLabel;html=1;align=center;verticalAlign=middle;resizable=0;points=[];" vertex="1" connectable="0" parent="PJf7z8ohsHyIc1MsfL0N-1">
          <mxGeometry x="-0.1574" y="9" relative="1" as="geometry">
            <mxPoint x="1" as="offset" />
          </mxGeometry>
        </mxCell>
        <mxCell id="E_iQ0Z_nkJK2vYBMSeWu-233" value="Register user ACC" style="ellipse;whiteSpace=wrap;html=1;" parent="E_iQ0Z_nkJK2vYBMSeWu-6" vertex="1">
          <mxGeometry x="90" y="490" width="140" height="70" as="geometry" />
        </mxCell>
        <mxCell id="E_iQ0Z_nkJK2vYBMSeWu-10" style="rounded=0;orthogonalLoop=1;jettySize=auto;html=1;entryX=1;entryY=0.5;entryDx=0;entryDy=0;" parent="1" source="E_iQ0Z_nkJK2vYBMSeWu-8" target="E_iQ0Z_nkJK2vYBMSeWu-4" edge="1">
          <mxGeometry relative="1" as="geometry" />
        </mxCell>
        <mxCell id="E_iQ0Z_nkJK2vYBMSeWu-27" value="Extend" style="text;html=1;align=center;verticalAlign=middle;resizable=0;points=[];autosize=1;strokeColor=none;fillColor=none;" parent="1" vertex="1">
          <mxGeometry x="750" y="278" width="60" height="30" as="geometry" />
        </mxCell>
        <mxCell id="E_iQ0Z_nkJK2vYBMSeWu-43" style="rounded=0;orthogonalLoop=1;jettySize=auto;html=1;entryX=0;entryY=0;entryDx=0;entryDy=0;" parent="1" source="E_iQ0Z_nkJK2vYBMSeWu-35" target="E_iQ0Z_nkJK2vYBMSeWu-39" edge="1">
          <mxGeometry relative="1" as="geometry" />
        </mxCell>
        <mxCell id="E_iQ0Z_nkJK2vYBMSeWu-44" style="rounded=0;orthogonalLoop=1;jettySize=auto;html=1;entryX=0;entryY=1;entryDx=0;entryDy=0;" parent="1" source="E_iQ0Z_nkJK2vYBMSeWu-35" target="E_iQ0Z_nkJK2vYBMSeWu-40" edge="1">
          <mxGeometry relative="1" as="geometry" />
        </mxCell>
        <mxCell id="E_iQ0Z_nkJK2vYBMSeWu-45" style="rounded=0;orthogonalLoop=1;jettySize=auto;html=1;" parent="1" source="E_iQ0Z_nkJK2vYBMSeWu-35" target="E_iQ0Z_nkJK2vYBMSeWu-41" edge="1">
          <mxGeometry relative="1" as="geometry" />
        </mxCell>
        <mxCell id="E_iQ0Z_nkJK2vYBMSeWu-55" style="rounded=0;orthogonalLoop=1;jettySize=auto;html=1;" parent="1" source="E_iQ0Z_nkJK2vYBMSeWu-35" target="E_iQ0Z_nkJK2vYBMSeWu-54" edge="1">
          <mxGeometry relative="1" as="geometry" />
        </mxCell>
        <mxCell id="E_iQ0Z_nkJK2vYBMSeWu-35" value="Student" style="shape=umlActor;verticalLabelPosition=bottom;verticalAlign=top;html=1;outlineConnect=0;" parent="1" vertex="1">
          <mxGeometry x="130" y="960" width="30" height="60" as="geometry" />
        </mxCell>
        <mxCell id="E_iQ0Z_nkJK2vYBMSeWu-36" value="" style="swimlane;startSize=0;" parent="1" vertex="1">
          <mxGeometry x="220" y="650" width="1370" height="1340" as="geometry" />
        </mxCell>
        <mxCell id="E_iQ0Z_nkJK2vYBMSeWu-39" value="View Project Issue&lt;br&gt;" style="ellipse;whiteSpace=wrap;html=1;" parent="E_iQ0Z_nkJK2vYBMSeWu-36" vertex="1">
          <mxGeometry x="70" y="100" width="140" height="70" as="geometry" />
        </mxCell>
        <mxCell id="E_iQ0Z_nkJK2vYBMSeWu-40" value="Add Project Issue" style="ellipse;whiteSpace=wrap;html=1;" parent="E_iQ0Z_nkJK2vYBMSeWu-36" vertex="1">
          <mxGeometry x="70" y="230" width="140" height="70" as="geometry" />
        </mxCell>
        <mxCell id="E_iQ0Z_nkJK2vYBMSeWu-41" value="Update Project Issue" style="ellipse;whiteSpace=wrap;html=1;" parent="E_iQ0Z_nkJK2vYBMSeWu-36" vertex="1">
          <mxGeometry x="70" y="360" width="140" height="70" as="geometry" />
        </mxCell>
        <mxCell id="E_iQ0Z_nkJK2vYBMSeWu-49" style="edgeStyle=orthogonalEdgeStyle;rounded=0;orthogonalLoop=1;jettySize=auto;html=1;entryX=1;entryY=0.5;entryDx=0;entryDy=0;" parent="E_iQ0Z_nkJK2vYBMSeWu-36" source="E_iQ0Z_nkJK2vYBMSeWu-46" target="E_iQ0Z_nkJK2vYBMSeWu-40" edge="1">
          <mxGeometry relative="1" as="geometry" />
        </mxCell>
        <mxCell id="E_iQ0Z_nkJK2vYBMSeWu-46" value="Import new , export" style="ellipse;whiteSpace=wrap;html=1;" parent="E_iQ0Z_nkJK2vYBMSeWu-36" vertex="1">
          <mxGeometry x="290" y="230" width="140" height="70" as="geometry" />
        </mxCell>
        <mxCell id="E_iQ0Z_nkJK2vYBMSeWu-51" style="edgeStyle=orthogonalEdgeStyle;rounded=0;orthogonalLoop=1;jettySize=auto;html=1;entryX=1;entryY=0.5;entryDx=0;entryDy=0;" parent="E_iQ0Z_nkJK2vYBMSeWu-36" source="E_iQ0Z_nkJK2vYBMSeWu-50" target="E_iQ0Z_nkJK2vYBMSeWu-41" edge="1">
          <mxGeometry relative="1" as="geometry" />
        </mxCell>
        <mxCell id="E_iQ0Z_nkJK2vYBMSeWu-50" value="batch update" style="ellipse;whiteSpace=wrap;html=1;" parent="E_iQ0Z_nkJK2vYBMSeWu-36" vertex="1">
          <mxGeometry x="350" y="360" width="140" height="70" as="geometry" />
        </mxCell>
        <mxCell id="E_iQ0Z_nkJK2vYBMSeWu-54" value="synchronize project" style="ellipse;whiteSpace=wrap;html=1;" parent="E_iQ0Z_nkJK2vYBMSeWu-36" vertex="1">
          <mxGeometry x="70" y="480" width="140" height="70" as="geometry" />
        </mxCell>
        <mxCell id="E_iQ0Z_nkJK2vYBMSeWu-57" value="manage project milestones&lt;br&gt;" style="ellipse;whiteSpace=wrap;html=1;" parent="E_iQ0Z_nkJK2vYBMSeWu-36" vertex="1">
          <mxGeometry x="1030" y="150" width="140" height="70" as="geometry" />
        </mxCell>
        <mxCell id="E_iQ0Z_nkJK2vYBMSeWu-64" style="rounded=0;orthogonalLoop=1;jettySize=auto;html=1;" parent="E_iQ0Z_nkJK2vYBMSeWu-36" source="E_iQ0Z_nkJK2vYBMSeWu-58" target="E_iQ0Z_nkJK2vYBMSeWu-57" edge="1">
          <mxGeometry relative="1" as="geometry" />
        </mxCell>
        <mxCell id="E_iQ0Z_nkJK2vYBMSeWu-75" value="Extend" style="edgeLabel;html=1;align=center;verticalAlign=middle;resizable=0;points=[];" parent="E_iQ0Z_nkJK2vYBMSeWu-64" vertex="1" connectable="0">
          <mxGeometry x="-0.2864" y="2" relative="1" as="geometry">
            <mxPoint x="-1" as="offset" />
          </mxGeometry>
        </mxCell>
        <mxCell id="E_iQ0Z_nkJK2vYBMSeWu-58" value="View" style="ellipse;whiteSpace=wrap;html=1;" parent="E_iQ0Z_nkJK2vYBMSeWu-36" vertex="1">
          <mxGeometry x="820" y="50" width="140" height="70" as="geometry" />
        </mxCell>
        <mxCell id="E_iQ0Z_nkJK2vYBMSeWu-66" style="rounded=0;orthogonalLoop=1;jettySize=auto;html=1;entryX=0;entryY=0.5;entryDx=0;entryDy=0;" parent="E_iQ0Z_nkJK2vYBMSeWu-36" source="E_iQ0Z_nkJK2vYBMSeWu-60" target="E_iQ0Z_nkJK2vYBMSeWu-57" edge="1">
          <mxGeometry relative="1" as="geometry" />
        </mxCell>
        <mxCell id="E_iQ0Z_nkJK2vYBMSeWu-76" value="Extend" style="edgeLabel;html=1;align=center;verticalAlign=middle;resizable=0;points=[];" parent="E_iQ0Z_nkJK2vYBMSeWu-66" vertex="1" connectable="0">
          <mxGeometry x="-0.3657" y="2" relative="1" as="geometry">
            <mxPoint x="1" as="offset" />
          </mxGeometry>
        </mxCell>
        <mxCell id="E_iQ0Z_nkJK2vYBMSeWu-60" value="update" style="ellipse;whiteSpace=wrap;html=1;" parent="E_iQ0Z_nkJK2vYBMSeWu-36" vertex="1">
          <mxGeometry x="820" y="140" width="140" height="70" as="geometry" />
        </mxCell>
        <mxCell id="E_iQ0Z_nkJK2vYBMSeWu-68" style="rounded=0;orthogonalLoop=1;jettySize=auto;html=1;entryX=0.284;entryY=0.968;entryDx=0;entryDy=0;entryPerimeter=0;" parent="E_iQ0Z_nkJK2vYBMSeWu-36" source="E_iQ0Z_nkJK2vYBMSeWu-67" target="E_iQ0Z_nkJK2vYBMSeWu-57" edge="1">
          <mxGeometry relative="1" as="geometry" />
        </mxCell>
        <mxCell id="E_iQ0Z_nkJK2vYBMSeWu-77" value="Extend" style="edgeLabel;html=1;align=center;verticalAlign=middle;resizable=0;points=[];" parent="E_iQ0Z_nkJK2vYBMSeWu-68" vertex="1" connectable="0">
          <mxGeometry x="-0.2895" y="3" relative="1" as="geometry">
            <mxPoint as="offset" />
          </mxGeometry>
        </mxCell>
        <mxCell id="E_iQ0Z_nkJK2vYBMSeWu-67" value="add new" style="ellipse;whiteSpace=wrap;html=1;" parent="E_iQ0Z_nkJK2vYBMSeWu-36" vertex="1">
          <mxGeometry x="830" y="240" width="140" height="70" as="geometry" />
        </mxCell>
        <mxCell id="E_iQ0Z_nkJK2vYBMSeWu-70" style="edgeStyle=orthogonalEdgeStyle;rounded=0;orthogonalLoop=1;jettySize=auto;html=1;entryX=0.5;entryY=1;entryDx=0;entryDy=0;" parent="E_iQ0Z_nkJK2vYBMSeWu-36" source="E_iQ0Z_nkJK2vYBMSeWu-69" target="E_iQ0Z_nkJK2vYBMSeWu-57" edge="1">
          <mxGeometry relative="1" as="geometry" />
        </mxCell>
        <mxCell id="E_iQ0Z_nkJK2vYBMSeWu-78" value="Extend" style="edgeLabel;html=1;align=center;verticalAlign=middle;resizable=0;points=[];" parent="E_iQ0Z_nkJK2vYBMSeWu-70" vertex="1" connectable="0">
          <mxGeometry x="0.171" y="5" relative="1" as="geometry">
            <mxPoint y="-1" as="offset" />
          </mxGeometry>
        </mxCell>
        <mxCell id="E_iQ0Z_nkJK2vYBMSeWu-69" value="Delete" style="ellipse;whiteSpace=wrap;html=1;" parent="E_iQ0Z_nkJK2vYBMSeWu-36" vertex="1">
          <mxGeometry x="1030" y="275" width="140" height="70" as="geometry" />
        </mxCell>
        <mxCell id="E_iQ0Z_nkJK2vYBMSeWu-73" style="edgeStyle=orthogonalEdgeStyle;rounded=0;orthogonalLoop=1;jettySize=auto;html=1;entryX=0.5;entryY=0;entryDx=0;entryDy=0;" parent="E_iQ0Z_nkJK2vYBMSeWu-36" source="E_iQ0Z_nkJK2vYBMSeWu-71" target="E_iQ0Z_nkJK2vYBMSeWu-57" edge="1">
          <mxGeometry relative="1" as="geometry" />
        </mxCell>
        <mxCell id="E_iQ0Z_nkJK2vYBMSeWu-74" value="Extend" style="edgeLabel;html=1;align=center;verticalAlign=middle;resizable=0;points=[];" parent="E_iQ0Z_nkJK2vYBMSeWu-73" vertex="1" connectable="0">
          <mxGeometry x="-0.2218" y="-5" relative="1" as="geometry">
            <mxPoint y="-1" as="offset" />
          </mxGeometry>
        </mxCell>
        <mxCell id="E_iQ0Z_nkJK2vYBMSeWu-71" value="Synchronize" style="ellipse;whiteSpace=wrap;html=1;" parent="E_iQ0Z_nkJK2vYBMSeWu-36" vertex="1">
          <mxGeometry x="1030" width="140" height="70" as="geometry" />
        </mxCell>
        <mxCell id="E_iQ0Z_nkJK2vYBMSeWu-96" value="manage project settings" style="ellipse;whiteSpace=wrap;html=1;" parent="E_iQ0Z_nkJK2vYBMSeWu-36" vertex="1">
          <mxGeometry x="1040" y="510" width="140" height="70" as="geometry" />
        </mxCell>
        <mxCell id="E_iQ0Z_nkJK2vYBMSeWu-97" style="rounded=0;orthogonalLoop=1;jettySize=auto;html=1;" parent="E_iQ0Z_nkJK2vYBMSeWu-36" source="E_iQ0Z_nkJK2vYBMSeWu-99" target="E_iQ0Z_nkJK2vYBMSeWu-96" edge="1">
          <mxGeometry relative="1" as="geometry" />
        </mxCell>
        <mxCell id="E_iQ0Z_nkJK2vYBMSeWu-98" value="Extend" style="edgeLabel;html=1;align=center;verticalAlign=middle;resizable=0;points=[];" parent="E_iQ0Z_nkJK2vYBMSeWu-97" vertex="1" connectable="0">
          <mxGeometry x="-0.2864" y="2" relative="1" as="geometry">
            <mxPoint x="-1" as="offset" />
          </mxGeometry>
        </mxCell>
        <mxCell id="E_iQ0Z_nkJK2vYBMSeWu-99" value="View list class setting" style="ellipse;whiteSpace=wrap;html=1;" parent="E_iQ0Z_nkJK2vYBMSeWu-36" vertex="1">
          <mxGeometry x="828" y="410" width="140" height="70" as="geometry" />
        </mxCell>
        <mxCell id="E_iQ0Z_nkJK2vYBMSeWu-100" style="rounded=0;orthogonalLoop=1;jettySize=auto;html=1;entryX=0;entryY=0.5;entryDx=0;entryDy=0;" parent="E_iQ0Z_nkJK2vYBMSeWu-36" source="E_iQ0Z_nkJK2vYBMSeWu-102" target="E_iQ0Z_nkJK2vYBMSeWu-96" edge="1">
          <mxGeometry relative="1" as="geometry" />
        </mxCell>
        <mxCell id="E_iQ0Z_nkJK2vYBMSeWu-101" value="Extend" style="edgeLabel;html=1;align=center;verticalAlign=middle;resizable=0;points=[];" parent="E_iQ0Z_nkJK2vYBMSeWu-100" vertex="1" connectable="0">
          <mxGeometry x="-0.3657" y="2" relative="1" as="geometry">
            <mxPoint x="1" as="offset" />
          </mxGeometry>
        </mxCell>
        <mxCell id="E_iQ0Z_nkJK2vYBMSeWu-102" value="update" style="ellipse;whiteSpace=wrap;html=1;" parent="E_iQ0Z_nkJK2vYBMSeWu-36" vertex="1">
          <mxGeometry x="830" y="500" width="140" height="70" as="geometry" />
        </mxCell>
        <mxCell id="E_iQ0Z_nkJK2vYBMSeWu-103" style="rounded=0;orthogonalLoop=1;jettySize=auto;html=1;entryX=0.284;entryY=0.968;entryDx=0;entryDy=0;entryPerimeter=0;" parent="E_iQ0Z_nkJK2vYBMSeWu-36" source="E_iQ0Z_nkJK2vYBMSeWu-105" target="E_iQ0Z_nkJK2vYBMSeWu-96" edge="1">
          <mxGeometry relative="1" as="geometry" />
        </mxCell>
        <mxCell id="E_iQ0Z_nkJK2vYBMSeWu-104" value="Extend" style="edgeLabel;html=1;align=center;verticalAlign=middle;resizable=0;points=[];" parent="E_iQ0Z_nkJK2vYBMSeWu-103" vertex="1" connectable="0">
          <mxGeometry x="-0.2895" y="3" relative="1" as="geometry">
            <mxPoint as="offset" />
          </mxGeometry>
        </mxCell>
        <mxCell id="E_iQ0Z_nkJK2vYBMSeWu-105" value="add new" style="ellipse;whiteSpace=wrap;html=1;" parent="E_iQ0Z_nkJK2vYBMSeWu-36" vertex="1">
          <mxGeometry x="840" y="600" width="140" height="70" as="geometry" />
        </mxCell>
        <mxCell id="E_iQ0Z_nkJK2vYBMSeWu-106" style="edgeStyle=orthogonalEdgeStyle;rounded=0;orthogonalLoop=1;jettySize=auto;html=1;entryX=0.5;entryY=1;entryDx=0;entryDy=0;" parent="E_iQ0Z_nkJK2vYBMSeWu-36" source="E_iQ0Z_nkJK2vYBMSeWu-108" target="E_iQ0Z_nkJK2vYBMSeWu-96" edge="1">
          <mxGeometry relative="1" as="geometry" />
        </mxCell>
        <mxCell id="E_iQ0Z_nkJK2vYBMSeWu-107" value="Extend" style="edgeLabel;html=1;align=center;verticalAlign=middle;resizable=0;points=[];" parent="E_iQ0Z_nkJK2vYBMSeWu-106" vertex="1" connectable="0">
          <mxGeometry x="0.171" y="5" relative="1" as="geometry">
            <mxPoint y="-1" as="offset" />
          </mxGeometry>
        </mxCell>
        <mxCell id="E_iQ0Z_nkJK2vYBMSeWu-108" value="Delete" style="ellipse;whiteSpace=wrap;html=1;" parent="E_iQ0Z_nkJK2vYBMSeWu-36" vertex="1">
          <mxGeometry x="1040" y="635" width="140" height="70" as="geometry" />
        </mxCell>
        <mxCell id="E_iQ0Z_nkJK2vYBMSeWu-109" style="edgeStyle=orthogonalEdgeStyle;rounded=0;orthogonalLoop=1;jettySize=auto;html=1;entryX=0.5;entryY=0;entryDx=0;entryDy=0;" parent="E_iQ0Z_nkJK2vYBMSeWu-36" source="E_iQ0Z_nkJK2vYBMSeWu-111" target="E_iQ0Z_nkJK2vYBMSeWu-96" edge="1">
          <mxGeometry relative="1" as="geometry" />
        </mxCell>
        <mxCell id="E_iQ0Z_nkJK2vYBMSeWu-110" value="Extend" style="edgeLabel;html=1;align=center;verticalAlign=middle;resizable=0;points=[];" parent="E_iQ0Z_nkJK2vYBMSeWu-109" vertex="1" connectable="0">
          <mxGeometry x="-0.2218" y="-5" relative="1" as="geometry">
            <mxPoint y="-1" as="offset" />
          </mxGeometry>
        </mxCell>
        <mxCell id="E_iQ0Z_nkJK2vYBMSeWu-111" value="Synchronize" style="ellipse;whiteSpace=wrap;html=1;" parent="E_iQ0Z_nkJK2vYBMSeWu-36" vertex="1">
          <mxGeometry x="1040" y="360" width="140" height="70" as="geometry" />
        </mxCell>
        <mxCell id="E_iQ0Z_nkJK2vYBMSeWu-113" style="rounded=0;orthogonalLoop=1;jettySize=auto;html=1;" parent="E_iQ0Z_nkJK2vYBMSeWu-36" source="E_iQ0Z_nkJK2vYBMSeWu-112" target="E_iQ0Z_nkJK2vYBMSeWu-99" edge="1">
          <mxGeometry relative="1" as="geometry" />
        </mxCell>
        <mxCell id="E_iQ0Z_nkJK2vYBMSeWu-112" value="View Details class setting" style="ellipse;whiteSpace=wrap;html=1;" parent="E_iQ0Z_nkJK2vYBMSeWu-36" vertex="1">
          <mxGeometry x="590" y="420" width="140" height="70" as="geometry" />
        </mxCell>
        <mxCell id="E_iQ0Z_nkJK2vYBMSeWu-118" style="rounded=0;orthogonalLoop=1;jettySize=auto;html=1;entryX=0.354;entryY=-0.045;entryDx=0;entryDy=0;entryPerimeter=0;" parent="E_iQ0Z_nkJK2vYBMSeWu-36" target="E_iQ0Z_nkJK2vYBMSeWu-96" edge="1">
          <mxGeometry relative="1" as="geometry">
            <mxPoint x="970.0005947986987" y="382.03253192482765" as="sourcePoint" />
            <mxPoint x="1092.24" y="499.99999999999994" as="targetPoint" />
          </mxGeometry>
        </mxCell>
        <mxCell id="E_iQ0Z_nkJK2vYBMSeWu-119" value="extend" style="edgeLabel;html=1;align=center;verticalAlign=middle;resizable=0;points=[];" parent="E_iQ0Z_nkJK2vYBMSeWu-118" vertex="1" connectable="0">
          <mxGeometry x="-0.1059" y="3" relative="1" as="geometry">
            <mxPoint x="1" as="offset" />
          </mxGeometry>
        </mxCell>
        <mxCell id="E_iQ0Z_nkJK2vYBMSeWu-115" value="View list project setting" style="ellipse;whiteSpace=wrap;html=1;" parent="E_iQ0Z_nkJK2vYBMSeWu-36" vertex="1">
          <mxGeometry x="860" y="330" width="140" height="70" as="geometry" />
        </mxCell>
        <mxCell id="E_iQ0Z_nkJK2vYBMSeWu-117" style="rounded=0;orthogonalLoop=1;jettySize=auto;html=1;entryX=0;entryY=0.5;entryDx=0;entryDy=0;" parent="E_iQ0Z_nkJK2vYBMSeWu-36" source="E_iQ0Z_nkJK2vYBMSeWu-116" target="E_iQ0Z_nkJK2vYBMSeWu-115" edge="1">
          <mxGeometry relative="1" as="geometry" />
        </mxCell>
        <mxCell id="E_iQ0Z_nkJK2vYBMSeWu-116" value="View Details project setting" style="ellipse;whiteSpace=wrap;html=1;" parent="E_iQ0Z_nkJK2vYBMSeWu-36" vertex="1">
          <mxGeometry x="610" y="330" width="140" height="70" as="geometry" />
        </mxCell>
        <mxCell id="E_iQ0Z_nkJK2vYBMSeWu-194" value="Manage Subjects&lt;br&gt;" style="ellipse;whiteSpace=wrap;html=1;" parent="E_iQ0Z_nkJK2vYBMSeWu-36" vertex="1">
          <mxGeometry x="120" y="720" width="140" height="70" as="geometry" />
        </mxCell>
        <mxCell id="E_iQ0Z_nkJK2vYBMSeWu-205" style="rounded=0;orthogonalLoop=1;jettySize=auto;html=1;entryX=0.743;entryY=0.089;entryDx=0;entryDy=0;entryPerimeter=0;" parent="E_iQ0Z_nkJK2vYBMSeWu-36" source="E_iQ0Z_nkJK2vYBMSeWu-198" target="E_iQ0Z_nkJK2vYBMSeWu-194" edge="1">
          <mxGeometry relative="1" as="geometry" />
        </mxCell>
        <mxCell id="E_iQ0Z_nkJK2vYBMSeWu-209" value="extend" style="edgeLabel;html=1;align=center;verticalAlign=middle;resizable=0;points=[];" parent="E_iQ0Z_nkJK2vYBMSeWu-205" vertex="1" connectable="0">
          <mxGeometry x="0.1244" relative="1" as="geometry">
            <mxPoint as="offset" />
          </mxGeometry>
        </mxCell>
        <mxCell id="E_iQ0Z_nkJK2vYBMSeWu-198" value="view list" style="ellipse;whiteSpace=wrap;html=1;" parent="E_iQ0Z_nkJK2vYBMSeWu-36" vertex="1">
          <mxGeometry x="240" y="600" width="140" height="70" as="geometry" />
        </mxCell>
        <mxCell id="E_iQ0Z_nkJK2vYBMSeWu-206" style="rounded=0;orthogonalLoop=1;jettySize=auto;html=1;entryX=1.002;entryY=0.366;entryDx=0;entryDy=0;entryPerimeter=0;" parent="E_iQ0Z_nkJK2vYBMSeWu-36" source="E_iQ0Z_nkJK2vYBMSeWu-199" target="E_iQ0Z_nkJK2vYBMSeWu-194" edge="1">
          <mxGeometry relative="1" as="geometry" />
        </mxCell>
        <mxCell id="E_iQ0Z_nkJK2vYBMSeWu-210" value="extend" style="edgeLabel;html=1;align=center;verticalAlign=middle;resizable=0;points=[];" parent="E_iQ0Z_nkJK2vYBMSeWu-206" vertex="1" connectable="0">
          <mxGeometry x="-0.0091" relative="1" as="geometry">
            <mxPoint x="-1" as="offset" />
          </mxGeometry>
        </mxCell>
        <mxCell id="E_iQ0Z_nkJK2vYBMSeWu-199" value="create" style="ellipse;whiteSpace=wrap;html=1;" parent="E_iQ0Z_nkJK2vYBMSeWu-36" vertex="1">
          <mxGeometry x="330" y="690" width="140" height="70" as="geometry" />
        </mxCell>
        <mxCell id="E_iQ0Z_nkJK2vYBMSeWu-207" style="rounded=0;orthogonalLoop=1;jettySize=auto;html=1;entryX=0.964;entryY=0.757;entryDx=0;entryDy=0;entryPerimeter=0;" parent="E_iQ0Z_nkJK2vYBMSeWu-36" source="E_iQ0Z_nkJK2vYBMSeWu-200" target="E_iQ0Z_nkJK2vYBMSeWu-194" edge="1">
          <mxGeometry relative="1" as="geometry" />
        </mxCell>
        <mxCell id="E_iQ0Z_nkJK2vYBMSeWu-211" value="extend" style="edgeLabel;html=1;align=center;verticalAlign=middle;resizable=0;points=[];" parent="E_iQ0Z_nkJK2vYBMSeWu-207" vertex="1" connectable="0">
          <mxGeometry x="-0.0075" y="1" relative="1" as="geometry">
            <mxPoint y="-1" as="offset" />
          </mxGeometry>
        </mxCell>
        <mxCell id="E_iQ0Z_nkJK2vYBMSeWu-200" value="update" style="ellipse;whiteSpace=wrap;html=1;" parent="E_iQ0Z_nkJK2vYBMSeWu-36" vertex="1">
          <mxGeometry x="350" y="800" width="140" height="70" as="geometry" />
        </mxCell>
        <mxCell id="E_iQ0Z_nkJK2vYBMSeWu-208" style="rounded=0;orthogonalLoop=1;jettySize=auto;html=1;entryX=0.775;entryY=0.92;entryDx=0;entryDy=0;entryPerimeter=0;" parent="E_iQ0Z_nkJK2vYBMSeWu-36" source="E_iQ0Z_nkJK2vYBMSeWu-201" target="E_iQ0Z_nkJK2vYBMSeWu-194" edge="1">
          <mxGeometry relative="1" as="geometry" />
        </mxCell>
        <mxCell id="E_iQ0Z_nkJK2vYBMSeWu-212" value="extend" style="edgeLabel;html=1;align=center;verticalAlign=middle;resizable=0;points=[];" parent="E_iQ0Z_nkJK2vYBMSeWu-208" vertex="1" connectable="0">
          <mxGeometry x="0.0948" y="1" relative="1" as="geometry">
            <mxPoint as="offset" />
          </mxGeometry>
        </mxCell>
        <mxCell id="E_iQ0Z_nkJK2vYBMSeWu-201" value="delete" style="ellipse;whiteSpace=wrap;html=1;" parent="E_iQ0Z_nkJK2vYBMSeWu-36" vertex="1">
          <mxGeometry x="350" y="890" width="140" height="70" as="geometry" />
        </mxCell>
        <mxCell id="E_iQ0Z_nkJK2vYBMSeWu-202" value="View detail" style="ellipse;whiteSpace=wrap;html=1;" parent="E_iQ0Z_nkJK2vYBMSeWu-36" vertex="1">
          <mxGeometry x="90" y="590" width="140" height="70" as="geometry" />
        </mxCell>
        <mxCell id="E_iQ0Z_nkJK2vYBMSeWu-48" value="Extend" style="text;html=1;align=center;verticalAlign=middle;resizable=0;points=[];autosize=1;strokeColor=none;fillColor=none;" parent="E_iQ0Z_nkJK2vYBMSeWu-36" vertex="1">
          <mxGeometry x="220" y="245" width="60" height="30" as="geometry" />
        </mxCell>
        <mxCell id="E_iQ0Z_nkJK2vYBMSeWu-52" value="Extend" style="text;html=1;align=center;verticalAlign=middle;resizable=0;points=[];autosize=1;strokeColor=none;fillColor=none;" parent="E_iQ0Z_nkJK2vYBMSeWu-36" vertex="1">
          <mxGeometry x="270" y="370" width="60" height="30" as="geometry" />
        </mxCell>
        <mxCell id="E_iQ0Z_nkJK2vYBMSeWu-213" value="view list User" style="ellipse;whiteSpace=wrap;html=1;" parent="E_iQ0Z_nkJK2vYBMSeWu-36" vertex="1">
          <mxGeometry x="140" y="1100" width="140" height="70" as="geometry" />
        </mxCell>
        <mxCell id="E_iQ0Z_nkJK2vYBMSeWu-214" style="rounded=0;orthogonalLoop=1;jettySize=auto;html=1;entryX=0.743;entryY=0.089;entryDx=0;entryDy=0;entryPerimeter=0;" parent="E_iQ0Z_nkJK2vYBMSeWu-36" source="E_iQ0Z_nkJK2vYBMSeWu-216" target="E_iQ0Z_nkJK2vYBMSeWu-213" edge="1">
          <mxGeometry relative="1" as="geometry" />
        </mxCell>
        <mxCell id="E_iQ0Z_nkJK2vYBMSeWu-215" value="extend" style="edgeLabel;html=1;align=center;verticalAlign=middle;resizable=0;points=[];" parent="E_iQ0Z_nkJK2vYBMSeWu-214" vertex="1" connectable="0">
          <mxGeometry x="0.1244" relative="1" as="geometry">
            <mxPoint as="offset" />
          </mxGeometry>
        </mxCell>
        <mxCell id="E_iQ0Z_nkJK2vYBMSeWu-216" value="view list" style="ellipse;whiteSpace=wrap;html=1;" parent="E_iQ0Z_nkJK2vYBMSeWu-36" vertex="1">
          <mxGeometry x="260" y="980" width="140" height="70" as="geometry" />
        </mxCell>
        <mxCell id="E_iQ0Z_nkJK2vYBMSeWu-217" style="rounded=0;orthogonalLoop=1;jettySize=auto;html=1;entryX=1.002;entryY=0.366;entryDx=0;entryDy=0;entryPerimeter=0;" parent="E_iQ0Z_nkJK2vYBMSeWu-36" source="E_iQ0Z_nkJK2vYBMSeWu-219" target="E_iQ0Z_nkJK2vYBMSeWu-213" edge="1">
          <mxGeometry relative="1" as="geometry" />
        </mxCell>
        <mxCell id="E_iQ0Z_nkJK2vYBMSeWu-218" value="extend" style="edgeLabel;html=1;align=center;verticalAlign=middle;resizable=0;points=[];" parent="E_iQ0Z_nkJK2vYBMSeWu-217" vertex="1" connectable="0">
          <mxGeometry x="-0.0091" relative="1" as="geometry">
            <mxPoint x="-1" as="offset" />
          </mxGeometry>
        </mxCell>
        <mxCell id="E_iQ0Z_nkJK2vYBMSeWu-219" value="create" style="ellipse;whiteSpace=wrap;html=1;" parent="E_iQ0Z_nkJK2vYBMSeWu-36" vertex="1">
          <mxGeometry x="350" y="1070" width="140" height="70" as="geometry" />
        </mxCell>
        <mxCell id="E_iQ0Z_nkJK2vYBMSeWu-220" style="rounded=0;orthogonalLoop=1;jettySize=auto;html=1;entryX=0.964;entryY=0.757;entryDx=0;entryDy=0;entryPerimeter=0;" parent="E_iQ0Z_nkJK2vYBMSeWu-36" source="E_iQ0Z_nkJK2vYBMSeWu-222" target="E_iQ0Z_nkJK2vYBMSeWu-213" edge="1">
          <mxGeometry relative="1" as="geometry" />
        </mxCell>
        <mxCell id="E_iQ0Z_nkJK2vYBMSeWu-221" value="extend" style="edgeLabel;html=1;align=center;verticalAlign=middle;resizable=0;points=[];" parent="E_iQ0Z_nkJK2vYBMSeWu-220" vertex="1" connectable="0">
          <mxGeometry x="-0.0075" y="1" relative="1" as="geometry">
            <mxPoint y="-1" as="offset" />
          </mxGeometry>
        </mxCell>
        <mxCell id="E_iQ0Z_nkJK2vYBMSeWu-222" value="update" style="ellipse;whiteSpace=wrap;html=1;" parent="E_iQ0Z_nkJK2vYBMSeWu-36" vertex="1">
          <mxGeometry x="370" y="1180" width="140" height="70" as="geometry" />
        </mxCell>
        <mxCell id="E_iQ0Z_nkJK2vYBMSeWu-223" style="rounded=0;orthogonalLoop=1;jettySize=auto;html=1;entryX=0.775;entryY=0.92;entryDx=0;entryDy=0;entryPerimeter=0;" parent="E_iQ0Z_nkJK2vYBMSeWu-36" source="E_iQ0Z_nkJK2vYBMSeWu-225" target="E_iQ0Z_nkJK2vYBMSeWu-213" edge="1">
          <mxGeometry relative="1" as="geometry" />
        </mxCell>
        <mxCell id="E_iQ0Z_nkJK2vYBMSeWu-224" value="extend" style="edgeLabel;html=1;align=center;verticalAlign=middle;resizable=0;points=[];" parent="E_iQ0Z_nkJK2vYBMSeWu-223" vertex="1" connectable="0">
          <mxGeometry x="0.0948" y="1" relative="1" as="geometry">
            <mxPoint as="offset" />
          </mxGeometry>
        </mxCell>
        <mxCell id="E_iQ0Z_nkJK2vYBMSeWu-225" value="Block/unblock" style="ellipse;whiteSpace=wrap;html=1;" parent="E_iQ0Z_nkJK2vYBMSeWu-36" vertex="1">
          <mxGeometry x="370" y="1270" width="140" height="70" as="geometry" />
        </mxCell>
        <mxCell id="E_iQ0Z_nkJK2vYBMSeWu-227" value="View detail" style="ellipse;whiteSpace=wrap;html=1;" parent="E_iQ0Z_nkJK2vYBMSeWu-36" vertex="1">
          <mxGeometry x="135" y="950" width="140" height="70" as="geometry" />
        </mxCell>
        <mxCell id="PJf7z8ohsHyIc1MsfL0N-11" style="rounded=0;orthogonalLoop=1;jettySize=auto;html=1;entryX=1;entryY=0;entryDx=0;entryDy=0;" edge="1" parent="E_iQ0Z_nkJK2vYBMSeWu-36" source="PJf7z8ohsHyIc1MsfL0N-7" target="PJf7z8ohsHyIc1MsfL0N-10">
          <mxGeometry relative="1" as="geometry" />
        </mxCell>
        <mxCell id="PJf7z8ohsHyIc1MsfL0N-12" style="rounded=0;orthogonalLoop=1;jettySize=auto;html=1;entryX=1;entryY=0.5;entryDx=0;entryDy=0;" edge="1" parent="E_iQ0Z_nkJK2vYBMSeWu-36" source="PJf7z8ohsHyIc1MsfL0N-7" target="PJf7z8ohsHyIc1MsfL0N-9">
          <mxGeometry relative="1" as="geometry" />
        </mxCell>
        <mxCell id="PJf7z8ohsHyIc1MsfL0N-7" value="View Ussue list" style="ellipse;whiteSpace=wrap;html=1;" vertex="1" parent="E_iQ0Z_nkJK2vYBMSeWu-36">
          <mxGeometry x="1120" y="919" width="140" height="70" as="geometry" />
        </mxCell>
        <mxCell id="PJf7z8ohsHyIc1MsfL0N-9" value="Add new Item" style="ellipse;whiteSpace=wrap;html=1;" vertex="1" parent="E_iQ0Z_nkJK2vYBMSeWu-36">
          <mxGeometry x="860" y="840" width="140" height="70" as="geometry" />
        </mxCell>
        <mxCell id="PJf7z8ohsHyIc1MsfL0N-14" style="edgeStyle=orthogonalEdgeStyle;rounded=0;orthogonalLoop=1;jettySize=auto;html=1;entryX=1;entryY=0.3333333333333333;entryDx=0;entryDy=0;entryPerimeter=0;" edge="1" parent="E_iQ0Z_nkJK2vYBMSeWu-36" source="PJf7z8ohsHyIc1MsfL0N-10" target="PJf7z8ohsHyIc1MsfL0N-13">
          <mxGeometry relative="1" as="geometry" />
        </mxCell>
        <mxCell id="PJf7z8ohsHyIc1MsfL0N-10" value="Sync Gitlab" style="ellipse;whiteSpace=wrap;html=1;" vertex="1" parent="E_iQ0Z_nkJK2vYBMSeWu-36">
          <mxGeometry x="1030" y="1090" width="140" height="70" as="geometry" />
        </mxCell>
        <mxCell id="PJf7z8ohsHyIc1MsfL0N-13" value="GItlab" style="shape=umlActor;verticalLabelPosition=bottom;verticalAlign=top;html=1;" vertex="1" parent="E_iQ0Z_nkJK2vYBMSeWu-36">
          <mxGeometry x="820" y="1120" width="30" height="60" as="geometry" />
        </mxCell>
        <mxCell id="E_iQ0Z_nkJK2vYBMSeWu-79" style="rounded=0;orthogonalLoop=1;jettySize=auto;html=1;entryX=1;entryY=1;entryDx=0;entryDy=0;" parent="1" source="E_iQ0Z_nkJK2vYBMSeWu-56" target="E_iQ0Z_nkJK2vYBMSeWu-57" edge="1">
          <mxGeometry relative="1" as="geometry" />
        </mxCell>
        <mxCell id="E_iQ0Z_nkJK2vYBMSeWu-121" style="rounded=0;orthogonalLoop=1;jettySize=auto;html=1;entryX=1;entryY=0.5;entryDx=0;entryDy=0;" parent="1" source="E_iQ0Z_nkJK2vYBMSeWu-56" target="E_iQ0Z_nkJK2vYBMSeWu-96" edge="1">
          <mxGeometry relative="1" as="geometry" />
        </mxCell>
        <mxCell id="E_iQ0Z_nkJK2vYBMSeWu-56" value="Team Leader&lt;br&gt;" style="shape=umlActor;verticalLabelPosition=bottom;verticalAlign=top;html=1;" parent="1" vertex="1">
          <mxGeometry x="1610" y="890" width="30" height="60" as="geometry" />
        </mxCell>
        <mxCell id="E_iQ0Z_nkJK2vYBMSeWu-114" value="Extend" style="text;html=1;align=center;verticalAlign=middle;resizable=0;points=[];autosize=1;strokeColor=none;fillColor=none;" parent="1" vertex="1">
          <mxGeometry x="1030" y="1058" width="60" height="30" as="geometry" />
        </mxCell>
        <mxCell id="E_iQ0Z_nkJK2vYBMSeWu-120" value="Extend" style="text;html=1;align=center;verticalAlign=middle;resizable=0;points=[];autosize=1;strokeColor=none;fillColor=none;" parent="1" vertex="1">
          <mxGeometry x="1030" y="988" width="60" height="30" as="geometry" />
        </mxCell>
        <mxCell id="E_iQ0Z_nkJK2vYBMSeWu-124" value="" style="swimlane;startSize=0;" parent="1" vertex="1">
          <mxGeometry x="250" y="2030" width="1010" height="1110" as="geometry" />
        </mxCell>
        <mxCell id="E_iQ0Z_nkJK2vYBMSeWu-166" style="rounded=0;orthogonalLoop=1;jettySize=auto;html=1;entryX=0.666;entryY=0.953;entryDx=0;entryDy=0;entryPerimeter=0;" parent="E_iQ0Z_nkJK2vYBMSeWu-124" source="E_iQ0Z_nkJK2vYBMSeWu-127" target="E_iQ0Z_nkJK2vYBMSeWu-128" edge="1">
          <mxGeometry relative="1" as="geometry" />
        </mxCell>
        <mxCell id="E_iQ0Z_nkJK2vYBMSeWu-167" style="rounded=0;orthogonalLoop=1;jettySize=auto;html=1;entryX=0.5;entryY=0;entryDx=0;entryDy=0;" parent="E_iQ0Z_nkJK2vYBMSeWu-124" source="E_iQ0Z_nkJK2vYBMSeWu-127" target="E_iQ0Z_nkJK2vYBMSeWu-148" edge="1">
          <mxGeometry relative="1" as="geometry" />
        </mxCell>
        <mxCell id="E_iQ0Z_nkJK2vYBMSeWu-127" value="Manage subject&amp;nbsp;" style="ellipse;whiteSpace=wrap;html=1;" parent="E_iQ0Z_nkJK2vYBMSeWu-124" vertex="1">
          <mxGeometry x="740" y="510" width="140" height="70" as="geometry" />
        </mxCell>
        <mxCell id="E_iQ0Z_nkJK2vYBMSeWu-128" value="manage activity&lt;br&gt;" style="ellipse;whiteSpace=wrap;html=1;" parent="E_iQ0Z_nkJK2vYBMSeWu-124" vertex="1">
          <mxGeometry x="670" y="370" width="140" height="70" as="geometry" />
        </mxCell>
        <mxCell id="E_iQ0Z_nkJK2vYBMSeWu-129" style="rounded=0;orthogonalLoop=1;jettySize=auto;html=1;" parent="E_iQ0Z_nkJK2vYBMSeWu-124" source="E_iQ0Z_nkJK2vYBMSeWu-131" target="E_iQ0Z_nkJK2vYBMSeWu-128" edge="1">
          <mxGeometry relative="1" as="geometry" />
        </mxCell>
        <mxCell id="E_iQ0Z_nkJK2vYBMSeWu-130" value="Extend" style="edgeLabel;html=1;align=center;verticalAlign=middle;resizable=0;points=[];" parent="E_iQ0Z_nkJK2vYBMSeWu-129" vertex="1" connectable="0">
          <mxGeometry x="-0.2864" y="2" relative="1" as="geometry">
            <mxPoint x="-1" as="offset" />
          </mxGeometry>
        </mxCell>
        <mxCell id="E_iQ0Z_nkJK2vYBMSeWu-131" value="View" style="ellipse;whiteSpace=wrap;html=1;" parent="E_iQ0Z_nkJK2vYBMSeWu-124" vertex="1">
          <mxGeometry x="460" y="270" width="140" height="70" as="geometry" />
        </mxCell>
        <mxCell id="E_iQ0Z_nkJK2vYBMSeWu-132" style="rounded=0;orthogonalLoop=1;jettySize=auto;html=1;entryX=0;entryY=0.5;entryDx=0;entryDy=0;" parent="E_iQ0Z_nkJK2vYBMSeWu-124" source="E_iQ0Z_nkJK2vYBMSeWu-134" target="E_iQ0Z_nkJK2vYBMSeWu-128" edge="1">
          <mxGeometry relative="1" as="geometry" />
        </mxCell>
        <mxCell id="E_iQ0Z_nkJK2vYBMSeWu-133" value="Extend" style="edgeLabel;html=1;align=center;verticalAlign=middle;resizable=0;points=[];" parent="E_iQ0Z_nkJK2vYBMSeWu-132" vertex="1" connectable="0">
          <mxGeometry x="-0.3657" y="2" relative="1" as="geometry">
            <mxPoint x="1" as="offset" />
          </mxGeometry>
        </mxCell>
        <mxCell id="E_iQ0Z_nkJK2vYBMSeWu-134" value="update" style="ellipse;whiteSpace=wrap;html=1;" parent="E_iQ0Z_nkJK2vYBMSeWu-124" vertex="1">
          <mxGeometry x="460" y="360" width="140" height="70" as="geometry" />
        </mxCell>
        <mxCell id="E_iQ0Z_nkJK2vYBMSeWu-135" style="rounded=0;orthogonalLoop=1;jettySize=auto;html=1;entryX=0.284;entryY=0.968;entryDx=0;entryDy=0;entryPerimeter=0;" parent="E_iQ0Z_nkJK2vYBMSeWu-124" source="E_iQ0Z_nkJK2vYBMSeWu-137" target="E_iQ0Z_nkJK2vYBMSeWu-128" edge="1">
          <mxGeometry relative="1" as="geometry" />
        </mxCell>
        <mxCell id="E_iQ0Z_nkJK2vYBMSeWu-136" value="Extend" style="edgeLabel;html=1;align=center;verticalAlign=middle;resizable=0;points=[];" parent="E_iQ0Z_nkJK2vYBMSeWu-135" vertex="1" connectable="0">
          <mxGeometry x="-0.2895" y="3" relative="1" as="geometry">
            <mxPoint as="offset" />
          </mxGeometry>
        </mxCell>
        <mxCell id="E_iQ0Z_nkJK2vYBMSeWu-137" value="add new" style="ellipse;whiteSpace=wrap;html=1;" parent="E_iQ0Z_nkJK2vYBMSeWu-124" vertex="1">
          <mxGeometry x="470" y="460" width="140" height="70" as="geometry" />
        </mxCell>
        <mxCell id="E_iQ0Z_nkJK2vYBMSeWu-140" style="rounded=0;orthogonalLoop=1;jettySize=auto;html=1;entryX=0.5;entryY=0;entryDx=0;entryDy=0;" parent="E_iQ0Z_nkJK2vYBMSeWu-124" source="E_iQ0Z_nkJK2vYBMSeWu-142" target="E_iQ0Z_nkJK2vYBMSeWu-128" edge="1">
          <mxGeometry relative="1" as="geometry" />
        </mxCell>
        <mxCell id="E_iQ0Z_nkJK2vYBMSeWu-141" value="Extend" style="edgeLabel;html=1;align=center;verticalAlign=middle;resizable=0;points=[];" parent="E_iQ0Z_nkJK2vYBMSeWu-140" vertex="1" connectable="0">
          <mxGeometry x="-0.2218" y="-5" relative="1" as="geometry">
            <mxPoint y="-1" as="offset" />
          </mxGeometry>
        </mxCell>
        <mxCell id="E_iQ0Z_nkJK2vYBMSeWu-142" value="Synchronize" style="ellipse;whiteSpace=wrap;html=1;" parent="E_iQ0Z_nkJK2vYBMSeWu-124" vertex="1">
          <mxGeometry x="650" y="260" width="90" height="30" as="geometry" />
        </mxCell>
        <mxCell id="PJf7z8ohsHyIc1MsfL0N-18" style="rounded=0;orthogonalLoop=1;jettySize=auto;html=1;" edge="1" parent="E_iQ0Z_nkJK2vYBMSeWu-124" source="E_iQ0Z_nkJK2vYBMSeWu-144" target="E_iQ0Z_nkJK2vYBMSeWu-128">
          <mxGeometry relative="1" as="geometry" />
        </mxCell>
        <mxCell id="E_iQ0Z_nkJK2vYBMSeWu-144" value="View detail" style="ellipse;whiteSpace=wrap;html=1;" parent="E_iQ0Z_nkJK2vYBMSeWu-124" vertex="1">
          <mxGeometry x="500" y="130" width="140" height="70" as="geometry" />
        </mxCell>
        <mxCell id="E_iQ0Z_nkJK2vYBMSeWu-161" style="rounded=0;orthogonalLoop=1;jettySize=auto;html=1;entryX=1;entryY=1;entryDx=0;entryDy=0;" parent="E_iQ0Z_nkJK2vYBMSeWu-124" source="E_iQ0Z_nkJK2vYBMSeWu-179" target="E_iQ0Z_nkJK2vYBMSeWu-149" edge="1">
          <mxGeometry relative="1" as="geometry" />
        </mxCell>
        <mxCell id="E_iQ0Z_nkJK2vYBMSeWu-148" value="setting data" style="ellipse;whiteSpace=wrap;html=1;" parent="E_iQ0Z_nkJK2vYBMSeWu-124" vertex="1">
          <mxGeometry x="680" y="660" width="140" height="70" as="geometry" />
        </mxCell>
        <mxCell id="E_iQ0Z_nkJK2vYBMSeWu-149" value="setting groups" style="ellipse;whiteSpace=wrap;html=1;" parent="E_iQ0Z_nkJK2vYBMSeWu-124" vertex="1">
          <mxGeometry x="490" y="590" width="140" height="70" as="geometry" />
        </mxCell>
        <mxCell id="E_iQ0Z_nkJK2vYBMSeWu-171" value="Manage Class" style="ellipse;whiteSpace=wrap;html=1;" parent="E_iQ0Z_nkJK2vYBMSeWu-124" vertex="1">
          <mxGeometry x="730" y="820" width="140" height="70" as="geometry" />
        </mxCell>
        <mxCell id="E_iQ0Z_nkJK2vYBMSeWu-176" style="rounded=0;orthogonalLoop=1;jettySize=auto;html=1;entryX=0;entryY=0.5;entryDx=0;entryDy=0;" parent="E_iQ0Z_nkJK2vYBMSeWu-124" source="E_iQ0Z_nkJK2vYBMSeWu-173" target="E_iQ0Z_nkJK2vYBMSeWu-171" edge="1">
          <mxGeometry relative="1" as="geometry" />
        </mxCell>
        <mxCell id="E_iQ0Z_nkJK2vYBMSeWu-177" value="extend&lt;br&gt;" style="edgeLabel;html=1;align=center;verticalAlign=middle;resizable=0;points=[];" parent="E_iQ0Z_nkJK2vYBMSeWu-176" vertex="1" connectable="0">
          <mxGeometry x="-0.0036" y="17" relative="1" as="geometry">
            <mxPoint as="offset" />
          </mxGeometry>
        </mxCell>
        <mxCell id="E_iQ0Z_nkJK2vYBMSeWu-173" value="View list" style="ellipse;whiteSpace=wrap;html=1;" parent="E_iQ0Z_nkJK2vYBMSeWu-124" vertex="1">
          <mxGeometry x="490" y="780" width="140" height="70" as="geometry" />
        </mxCell>
        <mxCell id="E_iQ0Z_nkJK2vYBMSeWu-178" style="rounded=0;orthogonalLoop=1;jettySize=auto;html=1;entryX=0;entryY=1;entryDx=0;entryDy=0;" parent="E_iQ0Z_nkJK2vYBMSeWu-124" source="E_iQ0Z_nkJK2vYBMSeWu-174" target="E_iQ0Z_nkJK2vYBMSeWu-171" edge="1">
          <mxGeometry relative="1" as="geometry" />
        </mxCell>
        <mxCell id="E_iQ0Z_nkJK2vYBMSeWu-174" value="delete&amp;nbsp;&amp;nbsp;" style="ellipse;whiteSpace=wrap;html=1;" parent="E_iQ0Z_nkJK2vYBMSeWu-124" vertex="1">
          <mxGeometry x="490" y="880" width="140" height="70" as="geometry" />
        </mxCell>
        <mxCell id="E_iQ0Z_nkJK2vYBMSeWu-180" style="rounded=0;orthogonalLoop=1;jettySize=auto;html=1;" parent="E_iQ0Z_nkJK2vYBMSeWu-124" source="E_iQ0Z_nkJK2vYBMSeWu-175" target="E_iQ0Z_nkJK2vYBMSeWu-171" edge="1">
          <mxGeometry relative="1" as="geometry" />
        </mxCell>
        <mxCell id="E_iQ0Z_nkJK2vYBMSeWu-181" value="extend" style="edgeLabel;html=1;align=center;verticalAlign=middle;resizable=0;points=[];" parent="E_iQ0Z_nkJK2vYBMSeWu-180" vertex="1" connectable="0">
          <mxGeometry x="-0.0336" y="-5" relative="1" as="geometry">
            <mxPoint as="offset" />
          </mxGeometry>
        </mxCell>
        <mxCell id="E_iQ0Z_nkJK2vYBMSeWu-175" value="cancel started" style="ellipse;whiteSpace=wrap;html=1;" parent="E_iQ0Z_nkJK2vYBMSeWu-124" vertex="1">
          <mxGeometry x="490" y="990" width="140" height="70" as="geometry" />
        </mxCell>
        <mxCell id="E_iQ0Z_nkJK2vYBMSeWu-188" style="rounded=0;orthogonalLoop=1;jettySize=auto;html=1;entryX=0.5;entryY=1;entryDx=0;entryDy=0;" parent="E_iQ0Z_nkJK2vYBMSeWu-124" source="E_iQ0Z_nkJK2vYBMSeWu-182" target="E_iQ0Z_nkJK2vYBMSeWu-171" edge="1">
          <mxGeometry relative="1" as="geometry" />
        </mxCell>
        <mxCell id="E_iQ0Z_nkJK2vYBMSeWu-182" value="add new" style="ellipse;whiteSpace=wrap;html=1;" parent="E_iQ0Z_nkJK2vYBMSeWu-124" vertex="1">
          <mxGeometry x="720" y="1000" width="140" height="70" as="geometry" />
        </mxCell>
        <mxCell id="E_iQ0Z_nkJK2vYBMSeWu-190" style="edgeStyle=orthogonalEdgeStyle;rounded=0;orthogonalLoop=1;jettySize=auto;html=1;entryX=1;entryY=1;entryDx=0;entryDy=0;" parent="E_iQ0Z_nkJK2vYBMSeWu-124" source="E_iQ0Z_nkJK2vYBMSeWu-187" target="E_iQ0Z_nkJK2vYBMSeWu-171" edge="1">
          <mxGeometry relative="1" as="geometry" />
        </mxCell>
        <mxCell id="E_iQ0Z_nkJK2vYBMSeWu-187" value="update" style="ellipse;whiteSpace=wrap;html=1;" parent="E_iQ0Z_nkJK2vYBMSeWu-124" vertex="1">
          <mxGeometry x="870" y="970" width="140" height="70" as="geometry" />
        </mxCell>
        <mxCell id="E_iQ0Z_nkJK2vYBMSeWu-179" value="extend" style="text;html=1;align=center;verticalAlign=middle;resizable=0;points=[];autosize=1;strokeColor=none;fillColor=none;" parent="E_iQ0Z_nkJK2vYBMSeWu-124" vertex="1">
          <mxGeometry x="630" y="640" width="60" height="30" as="geometry" />
        </mxCell>
        <mxCell id="PJf7z8ohsHyIc1MsfL0N-16" value="" style="rounded=0;orthogonalLoop=1;jettySize=auto;html=1;entryX=1;entryY=1;entryDx=0;entryDy=0;" edge="1" parent="E_iQ0Z_nkJK2vYBMSeWu-124" source="E_iQ0Z_nkJK2vYBMSeWu-148" target="E_iQ0Z_nkJK2vYBMSeWu-179">
          <mxGeometry relative="1" as="geometry">
            <mxPoint x="941" y="2706" as="sourcePoint" />
            <mxPoint x="859" y="2680" as="targetPoint" />
          </mxGeometry>
        </mxCell>
        <mxCell id="E_iQ0Z_nkJK2vYBMSeWu-184" value="set up" style="ellipse;whiteSpace=wrap;html=1;" parent="E_iQ0Z_nkJK2vYBMSeWu-124" vertex="1">
          <mxGeometry x="580" y="1040" width="140" height="70" as="geometry" />
        </mxCell>
        <mxCell id="E_iQ0Z_nkJK2vYBMSeWu-185" style="rounded=0;orthogonalLoop=1;jettySize=auto;html=1;entryX=1;entryY=0;entryDx=0;entryDy=0;" parent="E_iQ0Z_nkJK2vYBMSeWu-124" source="E_iQ0Z_nkJK2vYBMSeWu-182" target="E_iQ0Z_nkJK2vYBMSeWu-184" edge="1">
          <mxGeometry relative="1" as="geometry" />
        </mxCell>
        <mxCell id="E_iQ0Z_nkJK2vYBMSeWu-186" value="include" style="edgeLabel;html=1;align=center;verticalAlign=middle;resizable=0;points=[];" parent="E_iQ0Z_nkJK2vYBMSeWu-185" vertex="1" connectable="0">
          <mxGeometry x="-0.0647" y="-7" relative="1" as="geometry">
            <mxPoint as="offset" />
          </mxGeometry>
        </mxCell>
        <mxCell id="E_iQ0Z_nkJK2vYBMSeWu-169" style="rounded=0;orthogonalLoop=1;jettySize=auto;html=1;entryX=1;entryY=0.5;entryDx=0;entryDy=0;" parent="1" source="E_iQ0Z_nkJK2vYBMSeWu-147" target="E_iQ0Z_nkJK2vYBMSeWu-127" edge="1">
          <mxGeometry relative="1" as="geometry" />
        </mxCell>
        <mxCell id="E_iQ0Z_nkJK2vYBMSeWu-192" style="rounded=0;orthogonalLoop=1;jettySize=auto;html=1;" parent="1" source="E_iQ0Z_nkJK2vYBMSeWu-147" target="E_iQ0Z_nkJK2vYBMSeWu-171" edge="1">
          <mxGeometry relative="1" as="geometry" />
        </mxCell>
        <mxCell id="E_iQ0Z_nkJK2vYBMSeWu-147" value="Manager" style="shape=umlActor;verticalLabelPosition=bottom;verticalAlign=top;html=1;" parent="1" vertex="1">
          <mxGeometry x="1310" y="2385" width="30" height="60" as="geometry" />
        </mxCell>
        <mxCell id="E_iQ0Z_nkJK2vYBMSeWu-162" value="include" style="text;html=1;align=center;verticalAlign=middle;resizable=0;points=[];autosize=1;strokeColor=none;fillColor=none;" parent="1" vertex="1">
          <mxGeometry x="870" y="2528" width="60" height="30" as="geometry" />
        </mxCell>
        <mxCell id="E_iQ0Z_nkJK2vYBMSeWu-189" value="exttend" style="text;html=1;align=center;verticalAlign=middle;resizable=0;points=[];autosize=1;strokeColor=none;fillColor=none;" parent="1" vertex="1">
          <mxGeometry x="1040" y="2828" width="60" height="30" as="geometry" />
        </mxCell>
        <mxCell id="E_iQ0Z_nkJK2vYBMSeWu-191" value="extend" style="text;html=1;align=center;verticalAlign=middle;resizable=0;points=[];autosize=1;strokeColor=none;fillColor=none;" parent="1" vertex="1">
          <mxGeometry x="1140" y="2788" width="60" height="30" as="geometry" />
        </mxCell>
        <mxCell id="E_iQ0Z_nkJK2vYBMSeWu-197" style="edgeStyle=orthogonalEdgeStyle;rounded=0;orthogonalLoop=1;jettySize=auto;html=1;entryX=0;entryY=0.5;entryDx=0;entryDy=0;" parent="1" source="E_iQ0Z_nkJK2vYBMSeWu-193" target="E_iQ0Z_nkJK2vYBMSeWu-194" edge="1">
          <mxGeometry relative="1" as="geometry" />
        </mxCell>
        <mxCell id="E_iQ0Z_nkJK2vYBMSeWu-229" style="rounded=0;orthogonalLoop=1;jettySize=auto;html=1;entryX=0;entryY=0;entryDx=0;entryDy=0;" parent="1" source="E_iQ0Z_nkJK2vYBMSeWu-193" target="E_iQ0Z_nkJK2vYBMSeWu-213" edge="1">
          <mxGeometry relative="1" as="geometry" />
        </mxCell>
        <mxCell id="E_iQ0Z_nkJK2vYBMSeWu-193" value="Admin&lt;br&gt;" style="shape=umlActor;verticalLabelPosition=bottom;verticalAlign=top;html=1;" parent="1" vertex="1">
          <mxGeometry x="70" y="1390" width="70" height="100" as="geometry" />
        </mxCell>
        <mxCell id="E_iQ0Z_nkJK2vYBMSeWu-232" style="rounded=0;orthogonalLoop=1;jettySize=auto;html=1;" parent="1" source="E_iQ0Z_nkJK2vYBMSeWu-230" target="E_iQ0Z_nkJK2vYBMSeWu-231" edge="1">
          <mxGeometry relative="1" as="geometry" />
        </mxCell>
        <mxCell id="E_iQ0Z_nkJK2vYBMSeWu-234" style="rounded=0;orthogonalLoop=1;jettySize=auto;html=1;" parent="1" source="E_iQ0Z_nkJK2vYBMSeWu-230" target="E_iQ0Z_nkJK2vYBMSeWu-233" edge="1">
          <mxGeometry relative="1" as="geometry" />
        </mxCell>
        <mxCell id="E_iQ0Z_nkJK2vYBMSeWu-230" value="guest" style="shape=umlActor;verticalLabelPosition=bottom;verticalAlign=top;html=1;" parent="1" vertex="1">
          <mxGeometry x="120" y="420" width="30" height="60" as="geometry" />
        </mxCell>
        <mxCell id="PJf7z8ohsHyIc1MsfL0N-15" style="edgeStyle=orthogonalEdgeStyle;rounded=0;orthogonalLoop=1;jettySize=auto;html=1;entryX=1;entryY=0.5;entryDx=0;entryDy=0;" edge="1" parent="1" source="PJf7z8ohsHyIc1MsfL0N-6" target="PJf7z8ohsHyIc1MsfL0N-7">
          <mxGeometry relative="1" as="geometry" />
        </mxCell>
        <mxCell id="PJf7z8ohsHyIc1MsfL0N-6" value="Student. tý gộp vào" style="shape=umlActor;verticalLabelPosition=bottom;verticalAlign=top;html=1;outlineConnect=0;" vertex="1" parent="1">
          <mxGeometry x="1630" y="1560" width="50" height="60" as="geometry" />
        </mxCell>
      </root>
    </mxGraphModel>
  </diagram>
</mxfile>
